<svg xmlns="http://www.w3.org/2000/svg" width="1120" height="280" viewBox="0 0 1120 280" role="img" aria-labelledby="title desc">
  <title id="title">GitHub contribution activity</title>
  <desc id="desc">Heatmap of contributions generated from authenticated GitHub data for the last 52 weeks.</desc>
  <rect width="1120" height="280" rx="20" fill="#161b22" stroke="#30363d" />
  <text x="32" y="44" fill="#f0f6fc" font-size="22" font-weight="700">Contribution Activity</text><text x="1088" y="44" fill="#8b949e" font-size="12" text-anchor="end">1542 contributions in the last year</text>
  <text x="90" y="54" fill="#8b949e" font-size="12">Apr</text><text x="138" y="54" fill="#8b949e" font-size="12">May</text><text x="202" y="54" fill="#8b949e" font-size="12">Jun</text><text x="282" y="54" fill="#8b949e" font-size="12">Jul</text><text x="346" y="54" fill="#8b949e" font-size="12">Aug</text><text x="426" y="54" fill="#8b949e" font-size="12">Sep</text><text x="490" y="54" fill="#8b949e" font-size="12">Oct</text><text x="554" y="54" fill="#8b949e" font-size="12">Nov</text><text x="634" y="54" fill="#8b949e" font-size="12">Dec</text><text x="698" y="54" fill="#8b949e" font-size="12">Jan</text><text x="762" y="54" fill="#8b949e" font-size="12">Feb</text><text x="826" y="54" fill="#8b949e" font-size="12">Mar</text><text x="906" y="54" fill="#8b949e" font-size="12">Apr</text>
  <text x="34" y="104" fill="#8b949e" font-size="12">Mon</text><text x="34" y="136" fill="#8b949e" font-size="12">Wed</text><text x="34" y="168" fill="#8b949e" font-size="12">Fri</text>
  <rect x="90" y="110" width="12" height="12" rx="3" fill="#0e4429" /><rect x="90" y="126" width="12" height="12" rx="3" fill="#0e4429" /><rect x="90" y="142" width="12" height="12" rx="3" fill="#0e4429" /><rect x="90" y="158" width="12" height="12" rx="3" fill="#39d353" /><rect x="90" y="174" width="12" height="12" rx="3" fill="#0e4429" /><rect x="106" y="78" width="12" height="12" rx="3" fill="#0e4429" /><rect x="106" y="94" width="12" height="12" rx="3" fill="#0e4429" /><rect x="106" y="110" width="12" height="12" rx="3" fill="#0e4429" /><rect x="106" y="126" width="12" height="12" rx="3" fill="#39d353" /><rect x="106" y="142" width="12" height="12" rx="3" fill="#0e4429" /><rect x="106" y="158" width="12" height="12" rx="3" fill="#0e4429" /><rect x="106" y="174" width="12" height="12" rx="3" fill="#26a641" /><rect x="122" y="78" width="12" height="12" rx="3" fill="#0e4429" /><rect x="122" y="94" width="12" height="12" rx="3" fill="#0e4429" /><rect x="122" y="110" width="12" height="12" rx="3" fill="#0e4429" /><rect x="122" y="126" width="12" height="12" rx="3" fill="#39d353" /><rect x="122" y="142" width="12" height="12" rx="3" fill="#0e4429" /><rect x="122" y="158" width="12" height="12" rx="3" fill="#0e4429" /><rect x="122" y="174" width="12" height="12" rx="3" fill="#0e4429" /><rect x="138" y="78" width="12" height="12" rx="3" fill="#0e4429" /><rect x="138" y="94" width="12" height="12" rx="3" fill="#0e4429" /><rect x="138" y="110" width="12" height="12" rx="3" fill="#0e4429" /><rect x="138" y="126" width="12" height="12" rx="3" fill="#0e4429" /><rect x="138" y="142" width="12" height="12" rx="3" fill="#0e4429" /><rect x="138" y="158" width="12" height="12" rx="3" fill="#0e4429" /><rect x="138" y="174" width="12" height="12" rx="3" fill="#0e4429" /><rect x="154" y="78" width="12" height="12" rx="3" fill="#0e4429" /><rect x="154" y="94" width="12" height="12" rx="3" fill="#0e4429" /><rect x="154" y="110" width="12" height="12" rx="3" fill="#0e4429" /><rect x="154" y="126" width="12" height="12" rx="3" fill="#39d353" /><rect x="154" y="142" width="12" height="12" rx="3" fill="#0e4429" /><rect x="154" y="158" width="12" height="12" rx="3" fill="#0e4429" /><rect x="154" y="174" width="12" height="12" rx="3" fill="#0e4429" /><rect x="170" y="78" width="12" height="12" rx="3" fill="#0e4429" /><rect x="170" y="94" width="12" height="12" rx="3" fill="#0e4429" /><rect x="170" y="110" width="12" height="12" rx="3" fill="#0e4429" /><rect x="170" y="126" width="12" height="12" rx="3" fill="#0e4429" /><rect x="170" y="142" width="12" height="12" rx="3" fill="#0e4429" /><rect x="170" y="158" width="12" height="12" rx="3" fill="#0e4429" /><rect x="170" y="174" width="12" height="12" rx="3" fill="#0e4429" /><rect x="186" y="78" width="12" height="12" rx="3" fill="#0e4429" /><rect x="186" y="94" width="12" height="12" rx="3" fill="#0e4429" /><rect x="186" y="110" width="12" height="12" rx="3" fill="#0e4429" /><rect x="186" y="126" width="12" height="12" rx="3" fill="#0e4429" /><rect x="186" y="142" width="12" height="12" rx="3" fill="#0e4429" /><rect x="186" y="158" width="12" height="12" rx="3" fill="#0e4429" /><rect x="186" y="174" width="12" height="12" rx="3" fill="#0e4429" /><rect x="202" y="78" width="12" height="12" rx="3" fill="#0e4429" /><rect x="202" y="94" width="12" height="12" rx="3" fill="#0e4429" /><rect x="202" y="110" width="12" height="12" rx="3" fill="#0e4429" /><rect x="202" y="126" width="12" height="12" rx="3" fill="#39d353" /><rect x="202" y="142" width="12" height="12" rx="3" fill="#0e4429" /><rect x="202" y="158" width="12" height="12" rx="3" fill="#0e4429" /><rect x="202" y="174" width="12" height="12" rx="3" fill="#0e4429" /><rect x="218" y="78" width="12" height="12" rx="3" fill="#0e4429" /><rect x="218" y="94" width="12" height="12" rx="3" fill="#0e4429" /><rect x="218" y="110" width="12" height="12" rx="3" fill="#0e4429" /><rect x="218" y="126" width="12" height="12" rx="3" fill="#39d353" /><rect x="218" y="142" width="12" height="12" rx="3" fill="#0e4429" /><rect x="218" y="158" width="12" height="12" rx="3" fill="#0e4429" /><rect x="218" y="174" width="12" height="12" rx="3" fill="#0e4429" /><rect x="234" y="78" width="12" height="12" rx="3" fill="#0e4429" /><rect x="234" y="94" width="12" height="12" rx="3" fill="#0e4429" /><rect x="234" y="110" width="12" height="12" rx="3" fill="#0e4429" /><rect x="234" y="126" width="12" height="12" rx="3" fill="#0e4429" /><rect x="234" y="142" width="12" height="12" rx="3" fill="#0e4429" /><rect x="234" y="158" width="12" height="12" rx="3" fill="#0e4429" /><rect x="234" y="174" width="12" height="12" rx="3" fill="#0e4429" /><rect x="250" y="78" width="12" height="12" rx="3" fill="#0e4429" /><rect x="250" y="94" width="12" height="12" rx="3" fill="#0e4429" /><rect x="250" y="110" width="12" height="12" rx="3" fill="#0e4429" /><rect x="250" y="126" width="12" height="12" rx="3" fill="#0e4429" /><rect x="250" y="142" width="12" height="12" rx="3" fill="#0e4429" /><rect x="250" y="158" width="12" height="12" rx="3" fill="#0e4429" /><rect x="250" y="174" width="12" height="12" rx="3" fill="#0e4429" /><rect x="266" y="78" width="12" height="12" rx="3" fill="#0e4429" /><rect x="266" y="94" width="12" height="12" rx="3" fill="#0e4429" /><rect x="266" y="110" width="12" height="12" rx="3" fill="#0e4429" /><rect x="266" y="126" width="12" height="12" rx="3" fill="#0e4429" /><rect x="266" y="142" width="12" height="12" rx="3" fill="#0e4429" /><rect x="266" y="158" width="12" height="12" rx="3" fill="#0e4429" /><rect x="266" y="174" width="12" height="12" rx="3" fill="#0e4429" /><rect x="282" y="78" width="12" height="12" rx="3" fill="#0e4429" /><rect x="282" y="94" width="12" height="12" rx="3" fill="#0e4429" /><rect x="282" y="110" width="12" height="12" rx="3" fill="#0e4429" /><rect x="282" y="126" width="12" height="12" rx="3" fill="#0e4429" /><rect x="282" y="142" width="12" height="12" rx="3" fill="#0e4429" /><rect x="282" y="158" width="12" height="12" rx="3" fill="#0e4429" /><rect x="282" y="174" width="12" height="12" rx="3" fill="#0e4429" /><rect x="298" y="78" width="12" height="12" rx="3" fill="#0e4429" /><rect x="298" y="94" width="12" height="12" rx="3" fill="#0e4429" /><rect x="298" y="110" width="12" height="12" rx="3" fill="#0e4429" /><rect x="298" y="126" width="12" height="12" rx="3" fill="#0e4429" /><rect x="298" y="142" width="12" height="12" rx="3" fill="#0e4429" /><rect x="298" y="158" width="12" height="12" rx="3" fill="#0e4429" /><rect x="298" y="174" width="12" height="12" rx="3" fill="#0e4429" /><rect x="314" y="78" width="12" height="12" rx="3" fill="#0e4429" /><rect x="314" y="94" width="12" height="12" rx="3" fill="#0e4429" /><rect x="314" y="110" width="12" height="12" rx="3" fill="#0e4429" /><rect x="314" y="126" width="12" height="12" rx="3" fill="#0e4429" /><rect x="314" y="142" width="12" height="12" rx="3" fill="#0e4429" /><rect x="314" y="158" width="12" height="12" rx="3" fill="#0e4429" /><rect x="314" y="174" width="12" height="12" rx="3" fill="#0e4429" /><rect x="330" y="78" width="12" height="12" rx="3" fill="#0e4429" /><rect x="330" y="94" width="12" height="12" rx="3" fill="#0e4429" /><rect x="330" y="110" width="12" height="12" rx="3" fill="#0e4429" /><rect x="330" y="126" width="12" height="12" rx="3" fill="#39d353" /><rect x="330" y="142" width="12" height="12" rx="3" fill="#0e4429" /><rect x="330" y="158" width="12" height="12" rx="3" fill="#0e4429" /><rect x="330" y="174" width="12" height="12" rx="3" fill="#0e4429" /><rect x="346" y="78" width="12" height="12" rx="3" fill="#0e4429" /><rect x="346" y="94" width="12" height="12" rx="3" fill="#0e4429" /><rect x="346" y="110" width="12" height="12" rx="3" fill="#0e4429" /><rect x="346" y="126" width="12" height="12" rx="3" fill="#0e4429" /><rect x="346" y="142" width="12" height="12" rx="3" fill="#0e4429" /><rect x="346" y="158" width="12" height="12" rx="3" fill="#0e4429" /><rect x="346" y="174" width="12" height="12" rx="3" fill="#0e4429" /><rect x="362" y="78" width="12" height="12" rx="3" fill="#0e4429" /><rect x="362" y="94" width="12" height="12" rx="3" fill="#0e4429" /><rect x="362" y="110" width="12" height="12" rx="3" fill="#0e4429" /><rect x="362" y="126" width="12" height="12" rx="3" fill="#0e4429" /><rect x="362" y="142" width="12" height="12" rx="3" fill="#0e4429" /><rect x="362" y="158" width="12" height="12" rx="3" fill="#0e4429" /><rect x="362" y="174" width="12" height="12" rx="3" fill="#0e4429" /><rect x="378" y="78" width="12" height="12" rx="3" fill="#0e4429" /><rect x="378" y="94" width="12" height="12" rx="3" fill="#0e4429" /><rect x="378" y="110" width="12" height="12" rx="3" fill="#0e4429" /><rect x="378" y="126" width="12" height="12" rx="3" fill="#0e4429" /><rect x="378" y="142" width="12" height="12" rx="3" fill="#0e4429" /><rect x="378" y="158" width="12" height="12" rx="3" fill="#0e4429" /><rect x="378" y="174" width="12" height="12" rx="3" fill="#0e4429" /><rect x="394" y="78" width="12" height="12" rx="3" fill="#0e4429" /><rect x="394" y="94" width="12" height="12" rx="3" fill="#0e4429" /><rect x="394" y="110" width="12" height="12" rx="3" fill="#0e4429" /><rect x="394" y="126" width="12" height="12" rx="3" fill="#0e4429" /><rect x="394" y="142" width="12" height="12" rx="3" fill="#0e4429" /><rect x="394" y="158" width="12" height="12" rx="3" fill="#0e4429" /><rect x="394" y="174" width="12" height="12" rx="3" fill="#0e4429" /><rect x="410" y="78" width="12" height="12" rx="3" fill="#39d353" /><rect x="410" y="94" width="12" height="12" rx="3" fill="#0e4429" /><rect x="410" y="110" width="12" height="12" rx="3" fill="#0e4429" /><rect x="410" y="126" width="12" height="12" rx="3" fill="#39d353" /><rect x="410" y="142" width="12" height="12" rx="3" fill="#39d353" /><rect x="410" y="158" width="12" height="12" rx="3" fill="#0e4429" /><rect x="410" y="174" width="12" height="12" rx="3" fill="#0e4429" /><rect x="426" y="78" width="12" height="12" rx="3" fill="#0e4429" /><rect x="426" y="94" width="12" height="12" rx="3" fill="#0e4429" /><rect x="426" y="110" width="12" height="12" rx="3" fill="#0e4429" /><rect x="426" y="126" width="12" height="12" rx="3" fill="#39d353" /><rect x="426" y="142" width="12" height="12" rx="3" fill="#39d353" /><rect x="426" y="158" width="12" height="12" rx="3" fill="#0e4429" /><rect x="426" y="174" width="12" height="12" rx="3" fill="#0e4429" /><rect x="442" y="78" width="12" height="12" rx="3" fill="#0e4429" /><rect x="442" y="94" width="12" height="12" rx="3" fill="#0e4429" /><rect x="442" y="110" width="12" height="12" rx="3" fill="#0e4429" /><rect x="442" y="126" width="12" height="12" rx="3" fill="#39d353" /><rect x="442" y="142" width="12" height="12" rx="3" fill="#39d353" /><rect x="442" y="158" width="12" height="12" rx="3" fill="#0e4429" /><rect x="442" y="174" width="12" height="12" rx="3" fill="#0e4429" /><rect x="458" y="78" width="12" height="12" rx="3" fill="#0e4429" /><rect x="458" y="94" width="12" height="12" rx="3" fill="#0e4429" /><rect x="458" y="110" width="12" height="12" rx="3" fill="#0e4429" /><rect x="458" y="126" width="12" height="12" rx="3" fill="#39d353" /><rect x="458" y="142" width="12" height="12" rx="3" fill="#39d353" /><rect x="458" y="158" width="12" height="12" rx="3" fill="#0e4429" /><rect x="458" y="174" width="12" height="12" rx="3" fill="#0e4429" /><rect x="474" y="78" width="12" height="12" rx="3" fill="#0e4429" /><rect x="474" y="94" width="12" height="12" rx="3" fill="#0e4429" /><rect x="474" y="110" width="12" height="12" rx="3" fill="#0e4429" /><rect x="474" y="126" width="12" height="12" rx="3" fill="#39d353" /><rect x="474" y="142" width="12" height="12" rx="3" fill="#39d353" /><rect x="474" y="158" width="12" height="12" rx="3" fill="#0e4429" /><rect x="474" y="174" width="12" height="12" rx="3" fill="#0e4429" /><rect x="490" y="78" width="12" height="12" rx="3" fill="#0e4429" /><rect x="490" y="94" width="12" height="12" rx="3" fill="#0e4429" /><rect x="490" y="110" width="12" height="12" rx="3" fill="#0e4429" /><rect x="490" y="126" width="12" height="12" rx="3" fill="#39d353" /><rect x="490" y="142" width="12" height="12" rx="3" fill="#39d353" /><rect x="490" y="158" width="12" height="12" rx="3" fill="#0e4429" /><rect x="490" y="174" width="12" height="12" rx="3" fill="#0e4429" /><rect x="506" y="78" width="12" height="12" rx="3" fill="#0e4429" /><rect x="506" y="94" width="12" height="12" rx="3" fill="#0e4429" /><rect x="506" y="110" width="12" height="12" rx="3" fill="#0e4429" /><rect x="506" y="126" width="12" height="12" rx="3" fill="#39d353" /><rect x="506" y="142" width="12" height="12" rx="3" fill="#39d353" /><rect x="506" y="158" width="12" height="12" rx="3" fill="#0e4429" /><rect x="506" y="174" width="12" height="12" rx="3" fill="#0e4429" /><rect x="522" y="78" width="12" height="12" rx="3" fill="#0e4429" /><rect x="522" y="94" width="12" height="12" rx="3" fill="#0e4429" /><rect x="522" y="110" width="12" height="12" rx="3" fill="#39d353" /><rect x="522" y="126" width="12" height="12" rx="3" fill="#39d353" /><rect x="522" y="142" width="12" height="12" rx="3" fill="#39d353" /><rect x="522" y="158" width="12" height="12" rx="3" fill="#39d353" /><rect x="522" y="174" width="12" height="12" rx="3" fill="#0e4429" /><rect x="538" y="78" width="12" height="12" rx="3" fill="#0e4429" /><rect x="538" y="94" width="12" height="12" rx="3" fill="#0e4429" /><rect x="538" y="110" width="12" height="12" rx="3" fill="#0e4429" /><rect x="538" y="126" width="12" height="12" rx="3" fill="#39d353" /><rect x="538" y="142" width="12" height="12" rx="3" fill="#39d353" /><rect x="538" y="158" width="12" height="12" rx="3" fill="#0e4429" /><rect x="538" y="174" width="12" height="12" rx="3" fill="#0e4429" /><rect x="554" y="78" width="12" height="12" rx="3" fill="#39d353" /><rect x="554" y="94" width="12" height="12" rx="3" fill="#0e4429" /><rect x="554" y="110" width="12" height="12" rx="3" fill="#39d353" /><rect x="554" y="126" width="12" height="12" rx="3" fill="#39d353" /><rect x="554" y="142" width="12" height="12" rx="3" fill="#0e4429" /><rect x="554" y="158" width="12" height="12" rx="3" fill="#0e4429" /><rect x="554" y="174" width="12" height="12" rx="3" fill="#0e4429" /><rect x="570" y="78" width="12" height="12" rx="3" fill="#0e4429" /><rect x="570" y="94" width="12" height="12" rx="3" fill="#0e4429" /><rect x="570" y="110" width="12" height="12" rx="3" fill="#39d353" /><rect x="570" y="126" width="12" height="12" rx="3" fill="#39d353" /><rect x="570" y="142" width="12" height="12" rx="3" fill="#39d353" /><rect x="570" y="158" width="12" height="12" rx="3" fill="#0e4429" /><rect x="570" y="174" width="12" height="12" rx="3" fill="#0e4429" /><rect x="586" y="78" width="12" height="12" rx="3" fill="#0e4429" /><rect x="586" y="94" width="12" height="12" rx="3" fill="#0e4429" /><rect x="586" y="110" width="12" height="12" rx="3" fill="#0e4429" /><rect x="586" y="126" width="12" height="12" rx="3" fill="#39d353" /><rect x="586" y="142" width="12" height="12" rx="3" fill="#0e4429" /><rect x="586" y="158" width="12" height="12" rx="3" fill="#0e4429" /><rect x="586" y="174" width="12" height="12" rx="3" fill="#0e4429" /><rect x="602" y="78" width="12" height="12" rx="3" fill="#0e4429" /><rect x="602" y="94" width="12" height="12" rx="3" fill="#0e4429" /><rect x="602" y="110" width="12" height="12" rx="3" fill="#0e4429" /><rect x="602" y="126" width="12" height="12" rx="3" fill="#39d353" /><rect x="602" y="142" width="12" height="12" rx="3" fill="#39d353" /><rect x="602" y="158" width="12" height="12" rx="3" fill="#0e4429" /><rect x="602" y="174" width="12" height="12" rx="3" fill="#0e4429" /><rect x="618" y="78" width="12" height="12" rx="3" fill="#0e4429" /><rect x="618" y="94" width="12" height="12" rx="3" fill="#0e4429" /><rect x="618" y="110" width="12" height="12" rx="3" fill="#0e4429" /><rect x="618" y="126" width="12" height="12" rx="3" fill="#39d353" /><rect x="618" y="142" width="12" height="12" rx="3" fill="#0e4429" /><rect x="618" y="158" width="12" height="12" rx="3" fill="#0e4429" /><rect x="618" y="174" width="12" height="12" rx="3" fill="#0e4429" /><rect x="634" y="78" width="12" height="12" rx="3" fill="#0e4429" /><rect x="634" y="94" width="12" height="12" rx="3" fill="#0e4429" /><rect x="634" y="110" width="12" height="12" rx="3" fill="#39d353" /><rect x="634" y="126" width="12" height="12" rx="3" fill="#39d353" /><rect x="634" y="142" width="12" height="12" rx="3" fill="#0e4429" /><rect x="634" y="158" width="12" height="12" rx="3" fill="#0e4429" /><rect x="634" y="174" width="12" height="12" rx="3" fill="#0e4429" /><rect x="650" y="78" width="12" height="12" rx="3" fill="#0e4429" /><rect x="650" y="94" width="12" height="12" rx="3" fill="#0e4429" /><rect x="650" y="110" width="12" height="12" rx="3" fill="#39d353" /><rect x="650" y="126" width="12" height="12" rx="3" fill="#39d353" /><rect x="650" y="142" width="12" height="12" rx="3" fill="#39d353" /><rect x="650" y="158" width="12" height="12" rx="3" fill="#0e4429" /><rect x="650" y="174" width="12" height="12" rx="3" fill="#0e4429" /><rect x="666" y="78" width="12" height="12" rx="3" fill="#0e4429" /><rect x="666" y="94" width="12" height="12" rx="3" fill="#0e4429" /><rect x="666" y="110" width="12" height="12" rx="3" fill="#0e4429" /><rect x="666" y="126" width="12" height="12" rx="3" fill="#39d353" /><rect x="666" y="142" width="12" height="12" rx="3" fill="#0e4429" /><rect x="666" y="158" width="12" height="12" rx="3" fill="#26a641" /><rect x="666" y="174" width="12" height="12" rx="3" fill="#0e4429" /><rect x="682" y="78" width="12" height="12" rx="3" fill="#0e4429" /><rect x="682" y="94" width="12" height="12" rx="3" fill="#0e4429" /><rect x="682" y="110" width="12" height="12" rx="3" fill="#0e4429" /><rect x="682" y="126" width="12" height="12" rx="3" fill="#39d353" /><rect x="682" y="142" width="12" height="12" rx="3" fill="#39d353" /><rect x="682" y="158" width="12" height="12" rx="3" fill="#0e4429" /><rect x="682" y="174" width="12" height="12" rx="3" fill="#0e4429" /><rect x="698" y="78" width="12" height="12" rx="3" fill="#0e4429" /><rect x="698" y="94" width="12" height="12" rx="3" fill="#0e4429" /><rect x="698" y="110" width="12" height="12" rx="3" fill="#0e4429" /><rect x="698" y="126" width="12" height="12" rx="3" fill="#39d353" /><rect x="698" y="142" width="12" height="12" rx="3" fill="#39d353" /><rect x="698" y="158" width="12" height="12" rx="3" fill="#0e4429" /><rect x="698" y="174" width="12" height="12" rx="3" fill="#0e4429" /><rect x="714" y="78" width="12" height="12" rx="3" fill="#0e4429" /><rect x="714" y="94" width="12" height="12" rx="3" fill="#26a641" /><rect x="714" y="110" width="12" height="12" rx="3" fill="#0e4429" /><rect x="714" y="126" width="12" height="12" rx="3" fill="#0e4429" /><rect x="714" y="142" width="12" height="12" rx="3" fill="#39d353" /><rect x="714" y="158" width="12" height="12" rx="3" fill="#0e4429" /><rect x="714" y="174" width="12" height="12" rx="3" fill="#0e4429" /><rect x="730" y="78" width="12" height="12" rx="3" fill="#39d353" /><rect x="730" y="94" width="12" height="12" rx="3" fill="#0e4429" /><rect x="730" y="110" width="12" height="12" rx="3" fill="#0e4429" /><rect x="730" y="126" width="12" height="12" rx="3" fill="#39d353" /><rect x="730" y="142" width="12" height="12" rx="3" fill="#0e4429" /><rect x="730" y="158" width="12" height="12" rx="3" fill="#0e4429" /><rect x="730" y="174" width="12" height="12" rx="3" fill="#26a641" /><rect x="746" y="78" width="12" height="12" rx="3" fill="#0e4429" /><rect x="746" y="94" width="12" height="12" rx="3" fill="#26a641" /><rect x="746" y="110" width="12" height="12" rx="3" fill="#39d353" /><rect x="746" y="126" width="12" height="12" rx="3" fill="#39d353" /><rect x="746" y="142" width="12" height="12" rx="3" fill="#0e4429" /><rect x="746" y="158" width="12" height="12" rx="3" fill="#0e4429" /><rect x="746" y="174" width="12" height="12" rx="3" fill="#0e4429" /><rect x="762" y="78" width="12" height="12" rx="3" fill="#0e4429" /><rect x="762" y="94" width="12" height="12" rx="3" fill="#0e4429" /><rect x="762" y="110" width="12" height="12" rx="3" fill="#0e4429" /><rect x="762" y="126" width="12" height="12" rx="3" fill="#39d353" /><rect x="762" y="142" width="12" height="12" rx="3" fill="#0e4429" /><rect x="762" y="158" width="12" height="12" rx="3" fill="#0e4429" /><rect x="762" y="174" width="12" height="12" rx="3" fill="#0e4429" /><rect x="778" y="78" width="12" height="12" rx="3" fill="#0e4429" /><rect x="778" y="94" width="12" height="12" rx="3" fill="#0e4429" /><rect x="778" y="110" width="12" height="12" rx="3" fill="#39d353" /><rect x="778" y="126" width="12" height="12" rx="3" fill="#39d353" /><rect x="778" y="142" width="12" height="12" rx="3" fill="#0e4429" /><rect x="778" y="158" width="12" height="12" rx="3" fill="#26a641" /><rect x="778" y="174" width="12" height="12" rx="3" fill="#39d353" /><rect x="794" y="78" width="12" height="12" rx="3" fill="#26a641" /><rect x="794" y="94" width="12" height="12" rx="3" fill="#26a641" /><rect x="794" y="110" width="12" height="12" rx="3" fill="#0e4429" /><rect x="794" y="126" width="12" height="12" rx="3" fill="#0e4429" /><rect x="794" y="142" width="12" height="12" rx="3" fill="#39d353" /><rect x="794" y="158" width="12" height="12" rx="3" fill="#39d353" /><rect x="794" y="174" width="12" height="12" rx="3" fill="#161b22" /><rect x="810" y="78" width="12" height="12" rx="3" fill="#0e4429" /><rect x="810" y="94" width="12" height="12" rx="3" fill="#161b22" /><rect x="810" y="110" width="12" height="12" rx="3" fill="#0e4429" /><rect x="810" y="126" width="12" height="12" rx="3" fill="#39d353" /><rect x="810" y="142" width="12" height="12" rx="3" fill="#0e4429" /><rect x="810" y="158" width="12" height="12" rx="3" fill="#161b22" /><rect x="810" y="174" width="12" height="12" rx="3" fill="#161b22" /><rect x="826" y="78" width="12" height="12" rx="3" fill="#0e4429" /><rect x="826" y="94" width="12" height="12" rx="3" fill="#161b22" /><rect x="826" y="110" width="12" height="12" rx="3" fill="#161b22" /><rect x="826" y="126" width="12" height="12" rx="3" fill="#161b22" /><rect x="826" y="142" width="12" height="12" rx="3" fill="#39d353" /><rect x="826" y="158" width="12" height="12" rx="3" fill="#39d353" /><rect x="826" y="174" width="12" height="12" rx="3" fill="#39d353" /><rect x="842" y="78" width="12" height="12" rx="3" fill="#39d353" /><rect x="842" y="94" width="12" height="12" rx="3" fill="#161b22" /><rect x="842" y="110" width="12" height="12" rx="3" fill="#161b22" /><rect x="842" y="126" width="12" height="12" rx="3" fill="#39d353" /><rect x="842" y="142" width="12" height="12" rx="3" fill="#39d353" /><rect x="842" y="158" width="12" height="12" rx="3" fill="#161b22" /><rect x="842" y="174" width="12" height="12" rx="3" fill="#39d353" /><rect x="858" y="78" width="12" height="12" rx="3" fill="#39d353" /><rect x="858" y="94" width="12" height="12" rx="3" fill="#39d353" /><rect x="858" y="110" width="12" height="12" rx="3" fill="#39d353" /><rect x="858" y="126" width="12" height="12" rx="3" fill="#39d353" /><rect x="858" y="142" width="12" height="12" rx="3" fill="#39d353" /><rect x="858" y="158" width="12" height="12" rx="3" fill="#39d353" /><rect x="858" y="174" width="12" height="12" rx="3" fill="#39d353" /><rect x="874" y="78" width="12" height="12" rx="3" fill="#39d353" /><rect x="874" y="94" width="12" height="12" rx="3" fill="#39d353" /><rect x="874" y="110" width="12" height="12" rx="3" fill="#39d353" /><rect x="874" y="126" width="12" height="12" rx="3" fill="#26a641" /><rect x="874" y="142" width="12" height="12" rx="3" fill="#39d353" /><rect x="874" y="158" width="12" height="12" rx="3" fill="#0e4429" /><rect x="874" y="174" width="12" height="12" rx="3" fill="#26a641" /><rect x="890" y="78" width="12" height="12" rx="3" fill="#39d353" /><rect x="890" y="94" width="12" height="12" rx="3" fill="#39d353" /><rect x="890" y="110" width="12" height="12" rx="3" fill="#39d353" /><rect x="890" y="126" width="12" height="12" rx="3" fill="#26a641" /><rect x="890" y="142" width="12" height="12" rx="3" fill="#0e4429" /><rect x="890" y="158" width="12" height="12" rx="3" fill="#39d353" /><rect x="890" y="174" width="12" height="12" rx="3" fill="#26a641" /><rect x="906" y="78" width="12" height="12" rx="3" fill="#161b22" /><rect x="906" y="94" width="12" height="12" rx="3" fill="#39d353" /><rect x="906" y="110" width="12" height="12" rx="3" fill="#39d353" /><rect x="906" y="126" width="12" height="12" rx="3" fill="#39d353" /><rect x="906" y="142" width="12" height="12" rx="3" fill="#39d353" /><rect x="906" y="158" width="12" height="12" rx="3" fill="#161b22" /><rect x="906" y="174" width="12" height="12" rx="3" fill="#0e4429" /><rect x="922" y="78" width="12" height="12" rx="3" fill="#39d353" /><rect x="922" y="94" width="12" height="12" rx="3" fill="#0e4429" /><rect x="922" y="110" width="12" height="12" rx="3" fill="#161b22" />
  <text x="32" y="262" fill="#8b949e" font-size="11">Generated from authenticated GitHub contribution data.</text>
</svg>
